<?xml version="1.0" encoding="UTF-8"?>
<svg id="OBJECTS" xmlns="http://www.w3.org/2000/svg" viewBox="0 0 78.77 64.35">
  <defs>
    <style>
      .cls-1 {
        fill: #fff;
        fill-rule: evenodd;
        stroke-width: 0px;
      }
    </style>
  </defs>
  <path class="cls-1" d="M19.91,6.35h38.95c1.42,0,2.64,0,3.65.07,1.06.07,2.13.23,3.18.67,2.37.98,4.26,2.87,5.24,5.24.44,1.05.6,2.12.67,3.18.07,1.01.07,2.23.07,3.65v26.04c0,1.42,0,2.64-.07,3.65-.07,1.06-.23,2.13-.67,3.18-.98,2.37-2.87,4.26-5.24,5.24-1.05.44-2.12.6-3.18.67-1.01.07-2.23.07-3.65.07H19.91c-1.42,0-2.64,0-3.65-.07-1.06-.07-2.13-.23-3.18-.67-2.37-.98-4.26-2.87-5.24-5.24-.44-1.05-.6-2.12-.67-3.18-.07-1.01-.07-2.23-.07-3.65v-26.04c0-1.42,0-2.64.07-3.65.07-1.06.23-2.13.67-3.18.98-2.37,2.87-4.26,5.24-5.24,1.05-.44,2.12-.6,3.18-.67,1.01-.07,2.23-.07,3.65-.07ZM14.58,13.7c1.17-1.34,3.21-1.48,4.56-.3l18.12,15.86c1.22,1.07,3.04,1.07,4.25,0l18.12-15.86c1.34-1.17,3.38-1.04,4.56.3,1.17,1.34,1.04,3.38-.3,4.56l-18.12,15.86c-3.65,3.2-9.1,3.2-12.76,0l-18.12-15.86c-1.34-1.17-1.48-3.21-.3-4.56Z"/>
</svg>