<?xml version="1.0" encoding="UTF-8"?>
<svg id="OBJECTS" xmlns="http://www.w3.org/2000/svg" viewBox="0 0 88.78 105.56">
  <defs>
    <style>
      .cls-1 {
        fill: #fff;
        stroke-width: 0px;
      }
    </style>
  </defs>
  <path class="cls-1" d="M44.06,7.49c-18.26,0-33.06,14.8-33.06,33.06,0,7.19,2.36,13.79,6.27,19.19.07.13.08.27.16.4l22.04,33.06c1.02,1.53,2.74,2.45,4.58,2.45s3.56-.92,4.58-2.45l22.04-33.06c.08-.12.09-.27.16-.4,3.92-5.4,6.27-12,6.27-19.19,0-18.26-14.8-33.06-33.06-33.06ZM44.06,51.58c-6.09,0-11.02-4.93-11.02-11.02s4.93-11.02,11.02-11.02,11.02,4.93,11.02,11.02-4.93,11.02-11.02,11.02Z"/>
</svg>