<?xml version="1.0" encoding="UTF-8"?>
<svg id="OBJECTS" xmlns="http://www.w3.org/2000/svg" viewBox="0 0 121.8 101.91">
  <defs>
    <style>
      .cls-1 {
        fill: #fff;
        stroke-width: 0px;
      }
    </style>
  </defs>
  <path class="cls-1" d="M42.52,39.72h4.88c.56-2.36,1.29-4.52,2.15-6.44-1.65.92-3.19,2.07-4.56,3.44-.93.93-1.75,1.93-2.48,2.99Z"/>
  <path class="cls-1" d="M42.52,62.73c.72,1.06,1.55,2.06,2.48,2.99,1.37,1.37,2.91,2.53,4.56,3.44-.86-1.91-1.59-4.08-2.15-6.44h-4.88Z"/>
  <path class="cls-1" d="M76.47,39.72c-.72-1.06-1.55-2.06-2.48-2.99-1.37-1.37-2.91-2.53-4.56-3.44.86,1.91,1.59,4.08,2.15,6.44h4.88Z"/>
  <path class="cls-1" d="M63.35,35.1c-1.65-3.31-3.31-4.37-3.85-4.37s-2.2,1.07-3.85,4.37c-.68,1.37-1.27,2.93-1.75,4.62h11.21c-.48-1.69-1.07-3.25-1.75-4.62Z"/>
  <path class="cls-1" d="M55.64,67.36c1.65,3.31,3.31,4.37,3.85,4.37s2.2-1.07,3.85-4.37c.68-1.37,1.27-2.93,1.75-4.62h-11.21c.48,1.69,1.07,3.25,1.75,4.62Z"/>
  <path class="cls-1" d="M46.11,51.23c0-1.79.09-3.54.26-5.23h-6.7c-.44,1.69-.67,3.44-.67,5.23s.23,3.54.67,5.23h6.7c-.17-1.69-.26-3.44-.26-5.23Z"/>
  <path class="cls-1" d="M72.89,51.23c0,1.79-.09,3.54-.26,5.23h6.7c.44-1.69.67-3.44.67-5.23s-.23-3.54-.67-5.23h-6.7c.17,1.69.26,3.44.26,5.23Z"/>
  <path class="cls-1" d="M59.5,7.28c-24.27,0-43.95,19.68-43.95,43.95s19.68,43.95,43.95,43.95,43.95-19.68,43.95-43.95S83.77,7.28,59.5,7.28ZM59.5,78.01c-14.79,0-26.78-11.99-26.78-26.78s11.99-26.78,26.78-26.78,26.78,11.99,26.78,26.78-11.99,26.78-26.78,26.78Z"/>
  <path class="cls-1" d="M52.68,46c-.19,1.7-.29,3.46-.29,5.23s.1,3.53.29,5.23h13.64c.19-1.7.29-3.46.29-5.23s-.1-3.53-.29-5.23h-13.64Z"/>
  <path class="cls-1" d="M69.44,69.17c1.65-.92,3.19-2.07,4.56-3.44.93-.93,1.75-1.93,2.48-2.99h-4.88c-.56,2.36-1.29,4.52-2.15,6.44Z"/>
</svg>