<?xml version="1.0" encoding="UTF-8"?>
<svg id="OBJECTS" xmlns="http://www.w3.org/2000/svg" viewBox="0 0 99.07 94.2">
  <defs>
    <style>
      .cls-1 {
        fill: #fff;
        stroke-width: 0px;
      }
    </style>
  </defs>
  <path class="cls-1" d="M62.52,47.55c0,7.22-5.85,13.08-13.08,13.08s-13.08-5.85-13.08-13.08,5.85-13.08,13.08-13.08c7.22,0,13.07,5.86,13.08,13.08ZM90.3,29.57v35.96c-.01,12.63-10.25,22.87-22.88,22.88H31.46c-12.63-.01-22.87-10.25-22.88-22.88V29.57c.01-12.63,10.25-22.87,22.88-22.88h35.96c12.63.01,22.87,10.25,22.88,22.88ZM69.05,47.55c0-10.83-8.78-19.62-19.62-19.62s-19.62,8.78-19.62,19.62,8.78,19.62,19.62,19.62c10.83-.01,19.6-8.79,19.62-19.62ZM75.59,26.3c0-2.71-2.2-4.9-4.9-4.9s-4.9,2.2-4.9,4.9,2.2,4.9,4.9,4.9,4.9-2.2,4.9-4.9Z"/>
</svg>