<?xml version="1.0" encoding="UTF-8"?>
<svg id="OBJECTS" xmlns="http://www.w3.org/2000/svg" viewBox="0 0 101.23 101.93">
  <defs>
    <style>
      .cls-1 {
        fill: #fff;
        fill-rule: evenodd;
        stroke-width: 0px;
      }
    </style>
  </defs>
  <g id="Page-1">
    <g id="Dribbble-Light-Preview">
      <g id="icons">
        <path id="call-_192_" data-name="call-[#192]" class="cls-1" d="M88.23,78.23c-2.3,6.98-11.3,10.46-17.72,9.88-8.78-.79-18.33-5.45-25.59-10.58-10.66-7.54-20.65-19.2-26.46-31.58-4.11-8.74-5.03-19.5,1.08-27.47,2.26-2.95,4.71-4.52,8.38-4.7,5.1-.25,5.81,2.67,7.56,7.21,1.3,3.4,3.05,6.86,4.02,10.39,1.82,6.57-4.54,6.85-5.35,12.22-.5,3.39,3.61,7.93,5.46,10.35,3.64,4.73,8.01,8.81,12.94,11.92,2.82,1.78,7.38,4.99,10.62,3.22,4.98-2.73,4.51-11.12,11.47-8.28,3.61,1.47,7.1,3.59,10.54,5.44,5.32,2.86,5.07,5.83,3.05,11.99-1.52,4.6,1.52-4.6,0,0"/>
      </g>
    </g>
  </g>
</svg>